# Created by Kenney (www.kenney.nl)

mtllib block-grass-overhang-large-tall.mtl

g block-grass-overhang-large-tall

v 1 2 0.7262501 1 1 1
v 0.9198205 2 0.9198205 1 1 1
v 1 2 -0.7262501 1 1 1
v 0.9198205 2 -0.9198205 1 1 1
v 0.7262501 2 1 1 1 1
v 0.7262501 2 -1 1 1 1
v -0.7262501 2 1 1 1 1
v -0.7262501 2 -1 1 1 1
v -0.9198205 2 0.9198205 1 1 1
v -0.9198205 2 -0.9198205 1 1 1
v -1 2 0.7262501 1 1 1
v -1 2 -0.7262501 1 1 1
v 1.041062 1.875 -0.753625 1 1 1
v 1 1.75 -0.7262501 1 1 1
v 1.041062 1.875 0.753625 1 1 1
v 1 1.75 0.7262501 1 1 1
v -0.7262501 1.75 -1 1 1 1
v 0.7262501 1.75 -1 1 1 1
v -0.753625 1.875 -1.041062 1 1 1
v 0.753625 1.875 -1.041062 1 1 1
v -0.956874 1.875 -0.956874 1 1 1
v -1.041062 1.875 -0.753625 1 1 1
v -0.9198205 1.75 -0.9198205 1 1 1
v -1 1.75 -0.7262501 1 1 1
v 0.9198205 1.75 0.9198205 1 1 1
v 0.7262501 1.75 1 1 1 1
v 0.956874 1.875 0.956874 1 1 1
v 0.753625 1.875 1.041062 1 1 1
v 0.9198205 1.75 -0.9198205 1 1 1
v 0.956874 1.875 -0.956874 1 1 1
v -1.041062 1.875 0.753625 1 1 1
v -1 1.75 0.7262501 1 1 1
v -0.7262501 1.75 1 1 1 1
v -0.9198205 1.75 0.9198205 1 1 1
v -0.753625 1.875 1.041062 1 1 1
v -0.956874 1.875 0.956874 1 1 1
v 1.041062 1.682388 0.6890328 1 1 1
v 1.041062 1.60029 0.5024167 1 1 1
v 1.041062 1.682388 0.3158005 1 1 1
v 1.041062 1.875 0.2512083 1 1 1
v 1.041062 1.682388 0.1866161 1 1 1
v 1.041062 1.60029 2.14155E-09 1 1 1
v 1.041062 1.682388 -0.1866161 1 1 1
v 1.041062 1.875 -0.2512083 1 1 1
v 1.041062 1.682388 -0.6890328 1 1 1
v 1.041062 1.60029 -0.5024167 1 1 1
v 1.041062 1.682388 -0.3158005 1 1 1
v 1.01829 1.680145 0.8086026 1 1 1
v 0.956874 1.60029 0.956874 1 1 1
v -3.752554E-13 1.60029 1.041062 1 1 1
v -0.1866161 1.682388 1.041062 1 1 1
v 0.1866161 1.682388 1.041062 1 1 1
v -0.2512083 1.875 1.041062 1 1 1
v 0.2512083 1.875 1.041062 1 1 1
v 0.6890328 1.682388 1.041062 1 1 1
v 0.3158005 1.682388 1.041062 1 1 1
v 0.5024167 1.60029 1.041062 1 1 1
v -0.6890328 1.682388 1.041062 1 1 1
v -0.3158005 1.682388 1.041062 1 1 1
v -0.5024167 1.60029 1.041062 1 1 1
v 0.8086026 1.680145 1.01829 1 1 1
v -1.01829 1.680145 0.8086026 1 1 1
v -0.956874 1.60029 0.956874 1 1 1
v -0.8086026 1.680145 1.01829 1 1 1
v -1.041062 1.875 -0.2512083 1 1 1
v -1.041062 1.682388 -0.6890328 1 1 1
v -1.041062 1.60029 -0.5024167 1 1 1
v -1.041062 1.682388 -0.3158005 1 1 1
v -1.041062 1.875 0.2512083 1 1 1
v -1.041062 1.682388 -0.1866161 1 1 1
v -1.041062 1.60029 -2.141562E-09 1 1 1
v -1.041062 1.682388 0.1866161 1 1 1
v -1.041062 1.682388 0.3158005 1 1 1
v -1.041062 1.60029 0.5024167 1 1 1
v -1.041062 1.682388 0.6890328 1 1 1
v -0.956874 1.60029 -0.956874 1 1 1
v -1.01829 1.680145 -0.8086026 1 1 1
v 4.282713E-09 1.60029 -1.041062 1 1 1
v 0.1866161 1.682388 -1.041062 1 1 1
v -0.1866161 1.682388 -1.041062 1 1 1
v 0.2512083 1.875 -1.041062 1 1 1
v -0.2512083 1.875 -1.041062 1 1 1
v -0.6890328 1.682388 -1.041062 1 1 1
v -0.3158005 1.682388 -1.041062 1 1 1
v -0.5024167 1.60029 -1.041062 1 1 1
v 0.6890328 1.682388 -1.041062 1 1 1
v 0.3158005 1.682388 -1.041062 1 1 1
v 0.5024167 1.60029 -1.041062 1 1 1
v 0.956874 1.60029 -0.956874 1 1 1
v 1.01829 1.680145 -0.8086026 1 1 1
v 0.8086026 1.680145 -1.01829 1 1 1
v -0.8086026 1.680145 -1.01829 1 1 1
v 0.7262501 2.71732E-16 -1 1 1 1
v 0.9198205 2.71732E-16 -0.9198205 1 1 1
v -0.9198205 2.71732E-16 -0.9198205 1 1 1
v -1 2.71732E-16 -0.7262501 1 1 1
v 0.9198205 2.71732E-16 0.9198205 1 1 1
v 0.7262501 2.71732E-16 1 1 1 1
v -0.7262501 2.71732E-16 1 1 1 1
v 1 2.71732E-16 0.7262501 1 1 1
v 1 2.71732E-16 -0.7262501 1 1 1
v -0.7262501 2.71732E-16 -1 1 1 1
v -0.9198205 2.71732E-16 0.9198205 1 1 1
v -1 2.71732E-16 0.7262501 1 1 1

vn 0 1 0
vn 0.9774452 0 -0.2111887
vn 0.9254633 -0.3404191 -0.16623
vn 0.9774452 0 0.2111887
vn 0.9254633 -0.3404191 0.16623
vn -0.16623 -0.3404191 -0.9254633
vn 0.16623 -0.3404191 -0.9254633
vn -0.2111887 0 -0.9774452
vn 0.2111887 0 -0.9774452
vn -0.7071068 0 -0.7071068
vn -0.9774452 0 -0.2111887
vn -0.652123 -0.3866153 -0.652123
vn -0.9254633 -0.3404191 -0.16623
vn 0.652123 -0.3866153 0.652123
vn 0.16623 -0.3404191 0.9254633
vn 0.7071068 0 0.7071068
vn 0.2111887 0 0.9774452
vn 0.652123 -0.3866153 -0.652123
vn 0.7071068 0 -0.7071068
vn -0.9774452 0 0.2111887
vn -0.9254633 -0.3404191 0.16623
vn -0.16623 -0.3404191 0.9254633
vn -0.652123 -0.3866153 0.652123
vn -0.2111887 0 0.9774452
vn -0.7071068 0 0.7071068
vn -0.9254633 0.3404191 -0.16623
vn -0.9254633 0.3404191 0.16623
vn -0.652123 0.3866153 0.652123
vn -0.16623 0.3404191 0.9254633
vn 0.16623 0.3404191 0.9254633
vn 0.9254633 0.3404191 -0.16623
vn 0.9254633 0.3404191 0.16623
vn 0.16623 0.3404191 -0.9254633
vn 0.652123 0.3866153 -0.652123
vn -0.16623 0.3404191 -0.9254633
vn -0.652123 0.3866153 -0.652123
vn 0.652123 0.3866153 0.652123
vn 1 0 0
vn 0.9238795 0 0.3826834
vn 0 0 1
vn 0.3826834 0 0.9238795
vn -0.9238795 0 0.3826834
vn -0.3826834 0 0.9238795
vn -1 0 0
vn -0.9238795 0 -0.3826834
vn 0 0 -1
vn 0.9238795 0 -0.3826834
vn 0.3826834 0 -0.9238795
vn -0.3826834 0 -0.9238795
vn 0.1950903 0 -0.9807853
vn -0.9807853 0 -0.1950903
vn 0.1950903 0 0.9807853
vn -0.1950903 0 0.9807853
vn 0 -1 0
vn -0.1950903 0 -0.9807853
vn 0.9807853 0 0.1950903
vn -0.9807853 0 0.1950903
vn 0.9807853 0 -0.1950903

vt 0.21875 0.475
vt 0.21875 0.375
vt 0.21875 0.275
vt 0.21875 0.3048853
vt 0.21875 0.3040689
vt 0.71875 0.225
vt 0.71875 0.025

usemtl colormap

f 3/1/1 2/1/1 1/1/1
f 2/1/1 3/1/1 4/1/1
f 2/1/1 4/1/1 5/1/1
f 5/1/1 4/1/1 6/1/1
f 5/1/1 6/1/1 7/1/1
f 7/1/1 6/1/1 8/1/1
f 7/1/1 8/1/1 9/1/1
f 9/1/1 8/1/1 10/1/1
f 9/1/1 10/1/1 11/1/1
f 11/1/1 10/1/1 12/1/1
f 15/2/4 14/3/3 13/2/2
f 14/3/3 15/2/4 16/3/5
f 19/2/8 18/3/7 17/3/6
f 18/3/7 19/2/8 20/2/9
f 23/3/12 22/2/11 21/2/10
f 22/2/11 23/3/12 24/3/13
f 27/2/16 26/3/15 25/3/14
f 26/3/15 27/2/16 28/2/17
f 20/2/9 29/3/18 18/3/7
f 29/3/18 20/2/9 30/2/19
f 24/3/13 31/2/20 22/2/11
f 31/2/20 24/3/13 32/3/21
f 35/2/24 34/3/23 33/3/22
f 34/3/23 35/2/24 36/2/25
f 26/3/15 35/2/24 33/3/22
f 35/2/24 26/3/15 28/2/17
f 21/2/10 17/3/6 23/3/12
f 17/3/6 21/2/10 19/2/8
f 34/3/23 31/2/20 32/3/21
f 31/2/20 34/3/23 36/2/25
f 13/2/2 29/3/18 30/2/19
f 29/3/18 13/2/2 14/3/3
f 15/2/4 25/3/14 16/3/5
f 25/3/14 15/2/4 27/2/16
f 31/2/20 12/1/26 22/2/11
f 12/1/26 31/2/20 11/1/27
f 31/2/20 9/1/28 11/1/27
f 9/1/28 31/2/20 36/2/25
f 7/1/29 36/2/25 35/2/24
f 36/2/25 7/1/29 9/1/28
f 28/2/17 7/1/29 35/2/24
f 7/1/29 28/2/17 5/1/30
f 3/1/31 15/2/4 13/2/2
f 15/2/4 3/1/31 1/1/32
f 6/1/33 30/2/19 20/2/9
f 30/2/19 6/1/33 4/1/34
f 8/1/35 20/2/9 19/2/8
f 20/2/9 8/1/35 6/1/33
f 4/1/34 13/2/2 30/2/19
f 13/2/2 4/1/34 3/1/31
f 10/1/36 19/2/8 21/2/10
f 19/2/8 10/1/36 8/1/35
f 22/2/11 10/1/36 21/2/10
f 10/1/36 22/2/11 12/1/26
f 2/1/37 28/2/17 27/2/16
f 28/2/17 2/1/37 5/1/30
f 2/1/37 15/2/4 1/1/32
f 15/2/4 2/1/37 27/2/16
f 38/3/38 15/2/38 37/4/38
f 39/4/38 15/2/38 38/3/38
f 15/2/38 39/4/38 40/2/38
f 42/3/38 40/2/38 41/4/38
f 43/4/38 40/2/38 42/3/38
f 40/2/38 43/4/38 44/2/38
f 44/2/38 45/4/38 13/2/38
f 45/4/38 44/2/38 46/3/38
f 46/3/38 44/2/38 47/4/38
f 27/2/16 48/5/39 15/2/39
f 48/5/39 27/2/16 49/3/16
f 52/4/40 51/4/40 50/3/40
f 51/4/40 52/4/40 53/2/40
f 53/2/40 52/4/40 54/2/40
f 54/2/40 55/4/40 28/2/40
f 56/4/40 55/4/40 54/2/40
f 55/4/40 56/4/40 57/3/40
f 58/4/40 53/2/40 35/2/40
f 58/4/40 59/4/40 53/2/40
f 59/4/40 58/4/40 60/3/40
f 27/2/16 61/5/41 49/3/16
f 61/5/41 27/2/16 28/2/41
f 62/5/42 36/2/25 31/2/42
f 36/2/25 62/5/42 63/3/25
f 64/5/43 36/2/25 63/3/25
f 36/2/25 64/5/43 35/2/43
f 66/4/44 65/2/44 22/2/44
f 65/2/44 66/4/44 67/3/44
f 65/2/44 67/3/44 68/4/44
f 70/4/44 69/2/44 65/2/44
f 69/2/44 70/4/44 71/3/44
f 69/2/44 71/3/44 72/4/44
f 73/4/44 31/2/44 69/2/44
f 31/2/44 73/4/44 74/3/44
f 31/2/44 74/3/44 75/4/44
f 76/3/10 22/2/45 21/2/10
f 22/2/45 76/3/10 77/5/45
f 80/4/46 79/4/46 78/3/46
f 79/4/46 80/4/46 81/2/46
f 81/2/46 80/4/46 82/2/46
f 82/2/46 83/4/46 19/2/46
f 84/4/46 83/4/46 82/2/46
f 83/4/46 84/4/46 85/3/46
f 86/4/46 81/2/46 20/2/46
f 86/4/46 87/4/46 81/2/46
f 87/4/46 86/4/46 88/3/46
f 13/2/47 89/3/19 30/2/19
f 89/3/19 13/2/47 90/5/47
f 91/5/48 30/2/19 89/3/19
f 30/2/19 91/5/48 20/2/48
f 21/2/10 92/5/49 76/3/10
f 92/5/49 21/2/10 19/2/49
f 18/7/50 94/6/19 93/6/50
f 94/6/19 18/7/50 29/7/19
f 96/6/51 23/7/10 95/6/10
f 23/7/10 96/6/51 24/7/51
f 25/7/16 98/6/52 97/6/16
f 98/6/52 25/7/16 26/7/52
f 26/7/52 99/6/53 98/6/52
f 99/6/53 26/7/52 33/7/53
f 97/6/54 101/6/54 100/6/54
f 101/6/54 97/6/54 94/6/54
f 94/6/54 97/6/54 98/6/54
f 94/6/54 98/6/54 93/6/54
f 93/6/54 98/6/54 99/6/54
f 93/6/54 99/6/54 102/6/54
f 102/6/54 99/6/54 103/6/54
f 102/6/54 103/6/54 95/6/54
f 95/6/54 103/6/54 104/6/54
f 95/6/54 104/6/54 96/6/54
f 17/7/55 93/6/50 102/6/55
f 93/6/50 17/7/55 18/7/50
f 33/7/53 103/6/25 99/6/53
f 103/6/25 33/7/53 34/7/25
f 25/7/16 100/6/56 16/7/56
f 100/6/56 25/7/16 97/6/16
f 104/6/57 24/7/51 96/6/51
f 24/7/51 104/6/57 32/7/57
f 103/6/25 32/7/57 104/6/57
f 32/7/57 103/6/25 34/7/25
f 16/7/56 101/6/58 14/7/58
f 101/6/58 16/7/56 100/6/56
f 23/7/10 102/6/55 95/6/10
f 102/6/55 23/7/10 17/7/55
f 14/7/58 94/6/19 29/7/19
f 94/6/19 14/7/58 101/6/58

g block-grass-overhang-large-tall




usemtl colormap

f 3/1/1 2/1/1 1/1/1
f 2/1/1 3/1/1 4/1/1
f 2/1/1 4/1/1 5/1/1
f 5/1/1 4/1/1 6/1/1
f 5/1/1 6/1/1 7/1/1
f 7/1/1 6/1/1 8/1/1
f 7/1/1 8/1/1 9/1/1
f 9/1/1 8/1/1 10/1/1
f 9/1/1 10/1/1 11/1/1
f 11/1/1 10/1/1 12/1/1
f 15/2/4 14/3/3 13/2/2
f 14/3/3 15/2/4 16/3/5
f 19/2/8 18/3/7 17/3/6
f 18/3/7 19/2/8 20/2/9
f 23/3/12 22/2/11 21/2/10
f 22/2/11 23/3/12 24/3/13
f 27/2/16 26/3/15 25/3/14
f 26/3/15 27/2/16 28/2/17
f 20/2/9 29/3/18 18/3/7
f 29/3/18 20/2/9 30/2/19
f 24/3/13 31/2/20 22/2/11
f 31/2/20 24/3/13 32/3/21
f 35/2/24 34/3/23 33/3/22
f 34/3/23 35/2/24 36/2/25
f 26/3/15 35/2/24 33/3/22
f 35/2/24 26/3/15 28/2/17
f 21/2/10 17/3/6 23/3/12
f 17/3/6 21/2/10 19/2/8
f 34/3/23 31/2/20 32/3/21
f 31/2/20 34/3/23 36/2/25
f 13/2/2 29/3/18 30/2/19
f 29/3/18 13/2/2 14/3/3
f 15/2/4 25/3/14 16/3/5
f 25/3/14 15/2/4 27/2/16
f 31/2/20 12/1/26 22/2/11
f 12/1/26 31/2/20 11/1/27
f 31/2/20 9/1/28 11/1/27
f 9/1/28 31/2/20 36/2/25
f 7/1/29 36/2/25 35/2/24
f 36/2/25 7/1/29 9/1/28
f 28/2/17 7/1/29 35/2/24
f 7/1/29 28/2/17 5/1/30
f 3/1/31 15/2/4 13/2/2
f 15/2/4 3/1/31 1/1/32
f 6/1/33 30/2/19 20/2/9
f 30/2/19 6/1/33 4/1/34
f 8/1/35 20/2/9 19/2/8
f 20/2/9 8/1/35 6/1/33
f 4/1/34 13/2/2 30/2/19
f 13/2/2 4/1/34 3/1/31
f 10/1/36 19/2/8 21/2/10
f 19/2/8 10/1/36 8/1/35
f 22/2/11 10/1/36 21/2/10
f 10/1/36 22/2/11 12/1/26
f 2/1/37 28/2/17 27/2/16
f 28/2/17 2/1/37 5/1/30
f 2/1/37 15/2/4 1/1/32
f 15/2/4 2/1/37 27/2/16
f 38/3/38 15/2/38 37/4/38
f 39/4/38 15/2/38 38/3/38
f 15/2/38 39/4/38 40/2/38
f 42/3/38 40/2/38 41/4/38
f 43/4/38 40/2/38 42/3/38
f 40/2/38 43/4/38 44/2/38
f 44/2/38 45/4/38 13/2/38
f 45/4/38 44/2/38 46/3/38
f 46/3/38 44/2/38 47/4/38
f 27/2/16 48/5/39 15/2/39
f 48/5/39 27/2/16 49/3/16
f 52/4/40 51/4/40 50/3/40
f 51/4/40 52/4/40 53/2/40
f 53/2/40 52/4/40 54/2/40
f 54/2/40 55/4/40 28/2/40
f 56/4/40 55/4/40 54/2/40
f 55/4/40 56/4/40 57/3/40
f 58/4/40 53/2/40 35/2/40
f 58/4/40 59/4/40 53/2/40
f 59/4/40 58/4/40 60/3/40
f 27/2/16 61/5/41 49/3/16
f 61/5/41 27/2/16 28/2/41
f 62/5/42 36/2/25 31/2/42
f 36/2/25 62/5/42 63/3/25
f 64/5/43 36/2/25 63/3/25
f 36/2/25 64/5/43 35/2/43
f 66/4/44 65/2/44 22/2/44
f 65/2/44 66/4/44 67/3/44
f 65/2/44 67/3/44 68/4/44
f 70/4/44 69/2/44 65/2/44
f 69/2/44 70/4/44 71/3/44
f 69/2/44 71/3/44 72/4/44
f 73/4/44 31/2/44 69/2/44
f 31/2/44 73/4/44 74/3/44
f 31/2/44 74/3/44 75/4/44
f 76/3/10 22/2/45 21/2/10
f 22/2/45 76/3/10 77/5/45
f 80/4/46 79/4/46 78/3/46
f 79/4/46 80/4/46 81/2/46
f 81/2/46 80/4/46 82/2/46
f 82/2/46 83/4/46 19/2/46
f 84/4/46 83/4/46 82/2/46
f 83/4/46 84/4/46 85/3/46
f 86/4/46 81/2/46 20/2/46
f 86/4/46 87/4/46 81/2/46
f 87/4/46 86/4/46 88/3/46
f 13/2/47 89/3/19 30/2/19
f 89/3/19 13/2/47 90/5/47
f 91/5/48 30/2/19 89/3/19
f 30/2/19 91/5/48 20/2/48
f 21/2/10 92/5/49 76/3/10
f 92/5/49 21/2/10 19/2/49
f 18/7/50 94/6/19 93/6/50
f 94/6/19 18/7/50 29/7/19
f 96/6/51 23/7/10 95/6/10
f 23/7/10 96/6/51 24/7/51
f 25/7/16 98/6/52 97/6/16
f 98/6/52 25/7/16 26/7/52
f 26/7/52 99/6/53 98/6/52
f 99/6/53 26/7/52 33/7/53
f 97/6/54 101/6/54 100/6/54
f 101/6/54 97/6/54 94/6/54
f 94/6/54 97/6/54 98/6/54
f 94/6/54 98/6/54 93/6/54
f 93/6/54 98/6/54 99/6/54
f 93/6/54 99/6/54 102/6/54
f 102/6/54 99/6/54 103/6/54
f 102/6/54 103/6/54 95/6/54
f 95/6/54 103/6/54 104/6/54
f 95/6/54 104/6/54 96/6/54
f 17/7/55 93/6/50 102/6/55
f 93/6/50 17/7/55 18/7/50
f 33/7/53 103/6/25 99/6/53
f 103/6/25 33/7/53 34/7/25
f 25/7/16 100/6/56 16/7/56
f 100/6/56 25/7/16 97/6/16
f 104/6/57 24/7/51 96/6/51
f 24/7/51 104/6/57 32/7/57
f 103/6/25 32/7/57 104/6/57
f 32/7/57 103/6/25 34/7/25
f 16/7/56 101/6/58 14/7/58
f 101/6/58 16/7/56 100/6/56
f 23/7/10 102/6/55 95/6/10
f 102/6/55 23/7/10 17/7/55
f 14/7/58 94/6/19 29/7/19
f 94/6/19 14/7/58 101/6/58

